<svg width="24" height="24" viewBox="0 0 24 24" fill="none" xmlns="http://www.w3.org/2000/svg">
  <!-- Schwarzer Hintergrundkreis über das gesamte SVG -->
  <circle cx="12" cy="12" r="12" fill="black"/>

  <!-- Gruppe mit Padding (skalierter und zentrierter Inhalt) -->
  <g transform="scale(0.85) translate(1.76, 1.76)">
    <!-- Erstes Pfadstück (schattierter Teil) -->
    <path fill-rule="evenodd" clip-rule="evenodd" d="M1.49892 5.23459C1.97682 4.95776 2.58864 5.12076 2.86547 5.59865L12.3655 21.9986C12.6423 22.4765 12.4793 23.0883 12.0014 23.3652C11.5235 23.642 10.9117 23.479 10.6349 23.0011L1.13486 6.60114C0.858029 6.12325 1.02103 5.51142 1.49892 5.23459Z" fill="url(#paint0_linear_1234_5366)"/>
    
    <!-- Zweites Pfadstück (gelbe Flagge) -->
    <path d="M17.8711 1.50869C17.721 1.24266 17.4576 1.0598 17.1559 1.01222C16.8542 0.964635 16.5473 1.05754 16.3226 1.26446C14.8906 2.58344 13.361 2.58466 11.4727 2.58617H11.4727C11.3036 2.5863 11.1315 2.58644 10.9564 2.58753C9.93953 2.59384 8.79529 2.64283 7.69819 3.0828C6.56098 3.53886 5.55954 4.37679 4.73507 5.79829C4.55725 6.10486 4.55499 6.48265 4.72912 6.79133L9.12912 14.5913C9.30611 14.9051 9.63816 15.0994 9.99839 15.1C10.3586 15.1006 10.6913 14.9075 10.8694 14.5943C11.4993 13.4866 12.1697 12.9669 12.8355 12.6941C13.5405 12.4052 14.3379 12.35 15.3251 12.35C15.499 12.35 15.6787 12.3522 15.8635 12.3544L15.8792 12.3546C17.6936 12.3767 19.995 12.4047 22.068 10.5443C22.4171 10.231 22.5015 9.7172 22.2711 9.30869L17.8711 1.50869Z" fill="#FECD19"/>
  </g>

  <defs>
    <linearGradient id="paint0_linear_1234_5366" x1="6.75017" y1="5.09973" x2="6.75017" y2="23.5001" gradientUnits="userSpaceOnUse">
      <stop offset="0.065" stop-color="white"/>
      <stop offset="1" stop-color="#D5D5F3"/>
    </linearGradient>
  </defs>
</svg>
